<svg width="14" height="14" viewBox="0 0 14 14" fill="none" xmlns="http://www.w3.org/2000/svg">
<path d="M2.25 4C1.90388 4 1.56554 3.89736 1.27775 3.70507C0.989966 3.51278 0.765664 3.23946 0.633211 2.91969C0.500758 2.59992 0.466102 2.24806 0.533626 1.90859C0.601151 1.56912 0.767822 1.2573 1.01256 1.01256C1.2573 0.767822 1.56912 0.601151 1.90859 0.533626C2.24806 0.466102 2.59992 0.500758 2.91969 0.633211C3.23946 0.765665 3.51277 0.989966 3.70507 1.27775C3.89736 1.56554 3.99999 1.90388 3.99999 2.25C3.9995 2.71397 3.81497 3.1588 3.48688 3.48688C3.1588 3.81497 2.71397 3.9995 2.25 4Z" fill="black"/>
<path d="M6.99997 4C6.65385 4 6.31551 3.89736 6.02772 3.70507C5.73994 3.51278 5.51563 3.23946 5.38318 2.91969C5.25073 2.59992 5.21607 2.24806 5.2836 1.90859C5.35112 1.56912 5.51779 1.2573 5.76253 1.01256C6.00728 0.767822 6.3191 0.601151 6.65856 0.533626C6.99803 0.466102 7.3499 0.500758 7.66967 0.633211C7.98944 0.765665 8.26275 0.989966 8.45504 1.27775C8.64733 1.56554 8.74997 1.90388 8.74997 2.25C8.74947 2.71397 8.56494 3.1588 8.23686 3.48688C7.90878 3.81497 7.46395 3.9995 6.99997 4Z" fill="black"/>
<path d="M11.75 4C11.4039 4 11.0655 3.89736 10.7777 3.70507C10.4899 3.51278 10.2656 3.23946 10.1332 2.91969C10.0007 2.59992 9.96607 2.24806 10.0336 1.90859C10.1011 1.56912 10.2678 1.2573 10.5125 1.01256C10.7573 0.767822 11.0691 0.601151 11.4086 0.533626C11.748 0.466102 12.0999 0.500758 12.4197 0.633211C12.7394 0.765665 13.0127 0.989966 13.205 1.27775C13.3973 1.56554 13.5 1.90388 13.5 2.25C13.4995 2.71397 13.3149 3.1588 12.9869 3.48688C12.6588 3.81497 12.2139 3.9995 11.75 4Z" fill="black"/>
<path d="M2.25 8.75C1.90388 8.75 1.56554 8.64736 1.27775 8.45507C0.989966 8.26278 0.765664 7.98947 0.633211 7.6697C0.500758 7.34993 0.466102 6.99806 0.533626 6.65859C0.601151 6.31913 0.767822 6.00731 1.01256 5.76256C1.2573 5.51782 1.56912 5.35115 1.90859 5.28363C2.24806 5.2161 2.59992 5.25076 2.91969 5.38321C3.23946 5.51566 3.51277 5.73997 3.70507 6.02775C3.89736 6.31554 3.99999 6.65388 3.99999 7C3.9995 7.46398 3.81497 7.90881 3.48688 8.23689C3.1588 8.56497 2.71397 8.7495 2.25 8.75V8.75Z" fill="black"/>
<path d="M6.99997 8.75C6.65385 8.75 6.31551 8.64736 6.02772 8.45507C5.73994 8.26278 5.51563 7.98947 5.38318 7.6697C5.25073 7.34993 5.21607 6.99806 5.2836 6.65859C5.35112 6.31913 5.51779 6.00731 5.76253 5.76256C6.00728 5.51782 6.3191 5.35115 6.65856 5.28363C6.99803 5.2161 7.3499 5.25076 7.66967 5.38321C7.98944 5.51566 8.26275 5.73997 8.45504 6.02775C8.64733 6.31554 8.74997 6.65388 8.74997 7C8.74947 7.46398 8.56494 7.90881 8.23686 8.23689C7.90878 8.56497 7.46395 8.7495 6.99997 8.75V8.75Z" fill="black"/>
<path d="M11.75 8.75C11.4039 8.75 11.0655 8.64736 10.7777 8.45507C10.4899 8.26278 10.2656 7.98947 10.1332 7.6697C10.0007 7.34993 9.96607 6.99806 10.0336 6.65859C10.1011 6.31913 10.2678 6.00731 10.5125 5.76256C10.7573 5.51782 11.0691 5.35115 11.4086 5.28363C11.748 5.2161 12.0999 5.25076 12.4197 5.38321C12.7394 5.51566 13.0127 5.73997 13.205 6.02775C13.3973 6.31554 13.5 6.65388 13.5 7C13.4995 7.46398 13.3149 7.90881 12.9869 8.23689C12.6588 8.56497 12.2139 8.7495 11.75 8.75V8.75Z" fill="black"/>
<path d="M2.25 13.5C1.90388 13.5 1.56554 13.3974 1.27775 13.2051C0.989966 13.0128 0.765664 12.7395 0.633211 12.4197C0.500758 12.0999 0.466102 11.7481 0.533626 11.4086C0.601151 11.0691 0.767822 10.7573 1.01256 10.5126C1.2573 10.2678 1.56912 10.1012 1.90859 10.0336C2.24806 9.9661 2.59992 10.0008 2.91969 10.1332C3.23946 10.2657 3.51277 10.49 3.70507 10.7778C3.89736 11.0655 3.99999 11.4039 3.99999 11.75C3.9995 12.214 3.81497 12.6588 3.48688 12.9869C3.1588 13.315 2.71397 13.4995 2.25 13.5V13.5Z" fill="black"/>
<path d="M6.99997 13.5C6.65385 13.5 6.31551 13.3974 6.02772 13.2051C5.73994 13.0128 5.51563 12.7395 5.38318 12.4197C5.25073 12.0999 5.21607 11.7481 5.2836 11.4086C5.35112 11.0691 5.51779 10.7573 5.76253 10.5126C6.00728 10.2678 6.3191 10.1012 6.65856 10.0336C6.99803 9.9661 7.3499 10.0008 7.66967 10.1332C7.98944 10.2657 8.26275 10.49 8.45504 10.7778C8.64733 11.0655 8.74997 11.4039 8.74997 11.75C8.74947 12.214 8.56494 12.6588 8.23686 12.9869C7.90878 13.315 7.46395 13.4995 6.99997 13.5V13.5Z" fill="black"/>
<path d="M11.75 13.5C11.4039 13.5 11.0655 13.3974 10.7777 13.2051C10.4899 13.0128 10.2656 12.7395 10.1332 12.4197C10.0007 12.0999 9.96607 11.7481 10.0336 11.4086C10.1011 11.0691 10.2678 10.7573 10.5125 10.5126C10.7573 10.2678 11.0691 10.1012 11.4086 10.0336C11.748 9.9661 12.0999 10.0008 12.4197 10.1332C12.7394 10.2657 13.0127 10.49 13.205 10.7778C13.3973 11.0655 13.5 11.4039 13.5 11.75C13.4995 12.214 13.3149 12.6588 12.9869 12.9869C12.6588 13.315 12.2139 13.4995 11.75 13.5V13.5Z" fill="black"/>
</svg>
