<svg width="15" height="15" viewBox="0 0 15 15" fill="none" xmlns="http://www.w3.org/2000/svg">
<path d="M3.78125 2.45312C3.78125 1.71962 3.18663 1.125 2.45312 1.125C1.71962 1.125 1.125 1.71962 1.125 2.45312C1.125 3.18663 1.71962 3.78125 2.45312 3.78125C3.18663 3.78125 3.78125 3.18663 3.78125 2.45312Z" stroke="black" stroke-width="0.5" stroke-miterlimit="10"/>
<path d="M8.82812 2.45312C8.82812 1.71962 8.2335 1.125 7.5 1.125C6.7665 1.125 6.17188 1.71962 6.17188 2.45312C6.17188 3.18663 6.7665 3.78125 7.5 3.78125C8.2335 3.78125 8.82812 3.18663 8.82812 2.45312Z" stroke="black" stroke-width="0.5" stroke-miterlimit="10"/>
<path d="M13.875 2.45312C13.875 1.71962 13.2804 1.125 12.5469 1.125C11.8134 1.125 11.2188 1.71962 11.2188 2.45312C11.2188 3.18663 11.8134 3.78125 12.5469 3.78125C13.2804 3.78125 13.875 3.18663 13.875 2.45312Z" stroke="black" stroke-width="0.5" stroke-miterlimit="10"/>
<path d="M3.78125 7.5C3.78125 6.7665 3.18663 6.17188 2.45312 6.17188C1.71962 6.17188 1.125 6.7665 1.125 7.5C1.125 8.2335 1.71962 8.82812 2.45312 8.82812C3.18663 8.82812 3.78125 8.2335 3.78125 7.5Z" stroke="black" stroke-width="0.5" stroke-miterlimit="10"/>
<path d="M8.82812 7.5C8.82812 6.7665 8.2335 6.17188 7.5 6.17188C6.7665 6.17188 6.17188 6.7665 6.17188 7.5C6.17188 8.2335 6.7665 8.82812 7.5 8.82812C8.2335 8.82812 8.82812 8.2335 8.82812 7.5Z" stroke="black" stroke-width="0.5" stroke-miterlimit="10"/>
<path d="M13.875 7.5C13.875 6.7665 13.2804 6.17188 12.5469 6.17188C11.8134 6.17188 11.2188 6.7665 11.2188 7.5C11.2188 8.2335 11.8134 8.82812 12.5469 8.82812C13.2804 8.82812 13.875 8.2335 13.875 7.5Z" stroke="black" stroke-width="0.5" stroke-miterlimit="10"/>
<path d="M3.78125 12.5469C3.78125 11.8134 3.18663 11.2188 2.45312 11.2188C1.71962 11.2188 1.125 11.8134 1.125 12.5469C1.125 13.2804 1.71962 13.875 2.45312 13.875C3.18663 13.875 3.78125 13.2804 3.78125 12.5469Z" stroke="black" stroke-width="0.5" stroke-miterlimit="10"/>
<path d="M8.82812 12.5469C8.82812 11.8134 8.2335 11.2188 7.5 11.2188C6.7665 11.2188 6.17188 11.8134 6.17188 12.5469C6.17188 13.2804 6.7665 13.875 7.5 13.875C8.2335 13.875 8.82812 13.2804 8.82812 12.5469Z" stroke="black" stroke-width="0.5" stroke-miterlimit="10"/>
<path d="M13.875 12.5469C13.875 11.8134 13.2804 11.2188 12.5469 11.2188C11.8134 11.2188 11.2188 11.8134 11.2188 12.5469C11.2188 13.2804 11.8134 13.875 12.5469 13.875C13.2804 13.875 13.875 13.2804 13.875 12.5469Z" stroke="black" stroke-width="0.5" stroke-miterlimit="10"/>
</svg>
