<svg width="18" height="14" viewBox="0 0 18 14" fill="none" xmlns="http://www.w3.org/2000/svg">
<path d="M17.2826 7.10572C16.4994 3.56484 15.3207 1.67495 13.5722 1.15871C13.2047 1.05091 12.8235 0.997047 12.4404 0.998822C11.9342 0.998822 11.4933 1.12216 11.0269 1.25288C10.4649 1.41055 9.82642 1.58965 8.8955 1.58965C7.96459 1.58965 7.32576 1.41092 6.76263 1.25325C6.29588 1.12216 5.85535 0.998822 5.35056 0.998822C4.9545 0.997448 4.56017 1.05114 4.17889 1.15834C2.43965 1.67236 1.2617 3.56152 0.467039 7.1035C-0.387439 10.9151 0.0331534 13.3215 1.64647 13.8799C1.86762 13.9578 2.1003 13.998 2.33478 13.9988C3.43999 13.9988 4.32622 13.0782 4.93182 12.3245C5.61606 11.4715 6.417 11.0388 8.8955 11.0388C11.1092 11.0388 12.0254 11.339 12.8167 12.3245C13.3141 12.9442 13.7842 13.3777 14.2532 13.6506C14.8768 14.0132 15.5002 14.0937 16.1054 13.8858C17.0588 13.5605 17.6053 12.7004 17.7302 11.329C17.8251 10.2773 17.6788 8.89591 17.2826 7.10572ZM7.12303 6.90705H5.94139V8.0887C5.94139 8.2454 5.87914 8.39568 5.76834 8.50648C5.65754 8.61728 5.50726 8.67952 5.35056 8.67952C5.19387 8.67952 5.04359 8.61728 4.93279 8.50648C4.82199 8.39568 4.75974 8.2454 4.75974 8.0887V6.90705H3.57809C3.4214 6.90705 3.27112 6.84481 3.16032 6.73401C3.04952 6.6232 2.98727 6.47293 2.98727 6.31623C2.98727 6.15953 3.04952 6.00926 3.16032 5.89846C3.27112 5.78765 3.4214 5.72541 3.57809 5.72541H4.75974V4.54376C4.75974 4.38707 4.82199 4.23679 4.93279 4.12599C5.04359 4.01519 5.19387 3.95294 5.35056 3.95294C5.50726 3.95294 5.65754 4.01519 5.76834 4.12599C5.87914 4.23679 5.94139 4.38707 5.94139 4.54376V5.72541H7.12303C7.27973 5.72541 7.43001 5.78765 7.54081 5.89846C7.65161 6.00926 7.71386 6.15953 7.71386 6.31623C7.71386 6.47293 7.65161 6.6232 7.54081 6.73401C7.43001 6.84481 7.27973 6.90705 7.12303 6.90705ZM10.2249 7.05476C10.0788 7.05476 9.936 7.01145 9.81455 6.9303C9.6931 6.84914 9.59844 6.7338 9.54254 6.59885C9.48664 6.46391 9.47202 6.31541 9.50052 6.17215C9.52901 6.02889 9.59935 5.8973 9.70264 5.79401C9.80592 5.69073 9.93751 5.62039 10.0808 5.59189C10.224 5.5634 10.3725 5.57802 10.5075 5.63392C10.6424 5.68982 10.7578 5.78448 10.8389 5.90593C10.9201 6.02738 10.9634 6.17016 10.9634 6.31623C10.9634 6.5121 10.8856 6.69995 10.7471 6.83845C10.6086 6.97695 10.4207 7.05476 10.2249 7.05476V7.05476ZM11.8496 8.67952C11.7035 8.67952 11.5606 8.63616 11.4391 8.55493C11.3176 8.4737 11.223 8.35825 11.1671 8.22319C11.1113 8.08813 11.0968 7.93955 11.1254 7.79623C11.1541 7.65292 11.2246 7.52133 11.3281 7.41812C11.4315 7.31491 11.5633 7.24472 11.7067 7.21643C11.8501 7.18814 11.9986 7.20303 12.1335 7.25921C12.2684 7.31539 12.3837 7.41034 12.4646 7.53203C12.5455 7.65373 12.5885 7.7967 12.5881 7.94284C12.5877 8.13839 12.5096 8.32576 12.3712 8.46387C12.2327 8.60197 12.0452 8.67952 11.8496 8.67952V8.67952ZM11.8496 5.43C11.7036 5.43 11.5608 5.38668 11.4393 5.30553C11.3179 5.22438 11.2232 5.10904 11.1673 4.97409C11.1114 4.83914 11.0968 4.69065 11.1253 4.54739C11.1538 4.40413 11.2241 4.27253 11.3274 4.16925C11.4307 4.06596 11.5623 3.99562 11.7055 3.96713C11.8488 3.93863 11.9973 3.95326 12.1322 4.00916C12.2672 4.06505 12.3825 4.15971 12.4637 4.28116C12.5448 4.40261 12.5881 4.5454 12.5881 4.69147C12.5881 4.88734 12.5103 5.07518 12.3718 5.21369C12.2333 5.35219 12.0455 5.43 11.8496 5.43ZM13.4744 7.05476C13.3283 7.05476 13.1855 7.01145 13.0641 6.9303C12.9426 6.84914 12.848 6.7338 12.7921 6.59885C12.7362 6.46391 12.7215 6.31541 12.75 6.17215C12.7785 6.02889 12.8489 5.8973 12.9522 5.79401C13.0554 5.69073 13.187 5.62039 13.3303 5.59189C13.4736 5.5634 13.6221 5.57802 13.757 5.63392C13.892 5.68982 14.0073 5.78448 14.0884 5.90593C14.1696 6.02738 14.2129 6.17016 14.2129 6.31623C14.2129 6.5121 14.1351 6.69995 13.9966 6.83845C13.8581 6.97695 13.6703 7.05476 13.4744 7.05476V7.05476Z" fill="black"/>
</svg>
