<svg width="18" height="13" viewBox="0 0 18 13" fill="none" xmlns="http://www.w3.org/2000/svg">
<path d="M15.9755 6.25192C15.3431 3.39278 14.405 1.56895 12.9016 1.12451C12.6104 1.03956 12.3084 0.997191 12.0051 0.998703C11.0808 0.998703 10.3514 1.54867 8.70531 1.54867C7.05919 1.54867 6.32842 0.998703 5.40551 0.998703C5.08954 0.997067 4.77487 1.03941 4.47057 1.12451C2.96503 1.56895 2.0349 3.3945 1.39522 6.25192C0.742135 9.17052 0.860378 11.4766 2.13699 11.9193C3.03068 12.2287 3.82985 11.589 4.58675 10.6475C5.44607 9.57509 6.50441 9.24511 8.70531 9.24511C10.9062 9.24511 11.9233 9.57509 12.784 10.6475C13.5402 11.5897 14.3689 12.2215 15.2389 11.9248C16.6489 11.4433 16.629 9.2049 15.9755 6.25192Z" stroke="black" stroke-width="1.5" stroke-miterlimit="10"/>
<path d="M12.6 5.2C12.9314 5.2 13.2 4.93137 13.2 4.6C13.2 4.26863 12.9314 4 12.6 4C12.2686 4 12 4.26863 12 4.6C12 4.93137 12.2686 5.2 12.6 5.2Z" fill="black"/>
<path d="M13.6 6.2C13.9314 6.2 14.2 5.93137 14.2 5.6C14.2 5.26863 13.9314 5 13.6 5C13.2686 5 13 5.26863 13 5.6C13 5.93137 13.2686 6.2 13.6 6.2Z" fill="black"/>
<path d="M12.6 7.2C12.9314 7.2 13.2 6.93137 13.2 6.6C13.2 6.26863 12.9314 6 12.6 6C12.2686 6 12 6.26863 12 6.6C12 6.93137 12.2686 7.2 12.6 7.2Z" fill="black"/>
<path d="M11.6 6.2C11.9314 6.2 12.2 5.93137 12.2 5.6C12.2 5.26863 11.9314 5 11.6 5C11.2686 5 11 5.26863 11 5.6C11 5.93137 11.2686 6.2 11.6 6.2Z" fill="black"/>
<path d="M6 3V7" stroke="black" stroke-linecap="round" stroke-linejoin="round"/>
<path d="M8 5H4" stroke="black" stroke-linecap="round" stroke-linejoin="round"/>
</svg>
