<svg width="16" height="15" viewBox="0 0 16 15" fill="none" xmlns="http://www.w3.org/2000/svg">
<path d="M13.1154 1H2.88462C2.38522 1.00142 1.90669 1.20043 1.55356 1.55356C1.20043 1.90669 1.00142 2.38522 1 2.88462V9.34615C1.00142 9.84555 1.20043 10.3241 1.55356 10.6772C1.90669 11.0303 2.38522 11.2293 2.88462 11.2308H4.23077V13.9231L7.38481 11.2934C7.43324 11.2529 7.49435 11.2308 7.55745 11.2308H13.1154C13.6148 11.2293 14.0933 11.0303 14.4464 10.6772C14.7996 10.3241 14.9986 9.84555 15 9.34615V2.88462C14.9986 2.38522 14.7996 1.90669 14.4464 1.55356C14.0933 1.20043 13.6148 1.00142 13.1154 1V1Z" stroke="black" stroke-width="1.5" stroke-linejoin="round"/>
<path d="M5 7C5.55228 7 6 6.55228 6 6C6 5.44772 5.55228 5 5 5C4.44772 5 4 5.44772 4 6C4 6.55228 4.44772 7 5 7Z" fill="black"/>
<path d="M8 7C8.55228 7 9 6.55228 9 6C9 5.44772 8.55228 5 8 5C7.44772 5 7 5.44772 7 6C7 6.55228 7.44772 7 8 7Z" fill="black"/>
<path d="M11 7C11.5523 7 12 6.55228 12 6C12 5.44772 11.5523 5 11 5C10.4477 5 10 5.44772 10 6C10 6.55228 10.4477 7 11 7Z" fill="black"/>
</svg>
