<svg width="14" height="13" viewBox="0 0 14 13" fill="none" xmlns="http://www.w3.org/2000/svg">
<path d="M11.75 0H2.25C1.65347 0.000661713 1.08155 0.237927 0.659741 0.659741C0.237927 1.08155 0.000661713 1.65347 0 2.25V8.25C0.000661713 8.84653 0.237927 9.41845 0.659741 9.84026C1.08155 10.2621 1.65347 10.4993 2.25 10.5H3V12.5C2.99997 12.5951 3.02705 12.6882 3.07806 12.7684C3.12907 12.8486 3.20189 12.9127 3.28799 12.953C3.37409 12.9933 3.4699 13.0082 3.56418 12.996C3.65846 12.9838 3.74731 12.945 3.82031 12.8841L6.67938 10.5H11.75C12.3465 10.4993 12.9184 10.2621 13.3403 9.84026C13.7621 9.41845 13.9993 8.84653 14 8.25V2.25C13.9993 1.65347 13.7621 1.08155 13.3403 0.659741C12.9184 0.237927 12.3465 0.000661713 11.75 0V0ZM4 6.25C3.80222 6.25 3.60888 6.19135 3.44443 6.08147C3.27998 5.97159 3.15181 5.81541 3.07612 5.63268C3.00043 5.44996 2.98063 5.24889 3.01921 5.05491C3.0578 4.86093 3.15304 4.68275 3.29289 4.54289C3.43275 4.40304 3.61093 4.3078 3.80491 4.26921C3.99889 4.23063 4.19996 4.25043 4.38268 4.32612C4.56541 4.40181 4.72159 4.52998 4.83147 4.69443C4.94135 4.85888 5 5.05222 5 5.25C5 5.51522 4.89464 5.76957 4.70711 5.95711C4.51957 6.14464 4.26522 6.25 4 6.25ZM7 6.25C6.80222 6.25 6.60888 6.19135 6.44443 6.08147C6.27998 5.97159 6.15181 5.81541 6.07612 5.63268C6.00043 5.44996 5.98063 5.24889 6.01921 5.05491C6.0578 4.86093 6.15304 4.68275 6.29289 4.54289C6.43275 4.40304 6.61093 4.3078 6.80491 4.26921C6.99889 4.23063 7.19996 4.25043 7.38268 4.32612C7.56541 4.40181 7.72159 4.52998 7.83147 4.69443C7.94135 4.85888 8 5.05222 8 5.25C8 5.51522 7.89464 5.76957 7.70711 5.95711C7.51957 6.14464 7.26522 6.25 7 6.25V6.25ZM10 6.25C9.80222 6.25 9.60888 6.19135 9.44443 6.08147C9.27998 5.97159 9.15181 5.81541 9.07612 5.63268C9.00043 5.44996 8.98063 5.24889 9.01921 5.05491C9.0578 4.86093 9.15304 4.68275 9.29289 4.54289C9.43275 4.40304 9.61093 4.3078 9.80491 4.26921C9.99889 4.23063 10.2 4.25043 10.3827 4.32612C10.5654 4.40181 10.7216 4.52998 10.8315 4.69443C10.9414 4.85888 11 5.05222 11 5.25C11 5.51522 10.8946 5.76957 10.7071 5.95711C10.5196 6.14464 10.2652 6.25 10 6.25Z" fill="black"/>
</svg>
