<svg width="16" height="13" viewBox="0 0 16 13" fill="none" xmlns="http://www.w3.org/2000/svg">
<path d="M13.8667 0H2.13333C1.56773 0.000537659 1.02546 0.196373 0.625521 0.544538C0.225577 0.892704 0.000617618 1.36476 0 1.85714V11.1429C0.000617618 11.6352 0.225577 12.1073 0.625521 12.4555C1.02546 12.8036 1.56773 12.9995 2.13333 13H13.8667C14.4323 12.9995 14.9745 12.8036 15.3745 12.4555C15.7744 12.1073 15.9994 11.6352 16 11.1429V1.85714C15.9994 1.36476 15.7744 0.892704 15.3745 0.544538C14.9745 0.196373 14.4323 0.000537659 13.8667 0V0ZM2.66667 6.5C2.55617 6.5 2.4484 6.47012 2.35825 6.4145C2.2681 6.35887 2.20003 6.28024 2.16343 6.18948C2.12684 6.09872 2.12353 6.0003 2.15396 5.90783C2.1844 5.81536 2.24708 5.7334 2.33333 5.67328L4.47967 4.17857L2.33333 2.68386C2.27862 2.64575 2.23306 2.59864 2.19926 2.5452C2.16545 2.49177 2.14407 2.43306 2.13634 2.37244C2.1286 2.31181 2.13465 2.25045 2.15416 2.19186C2.17366 2.13327 2.20623 2.07859 2.25 2.03096C2.29377 1.98333 2.3479 1.94366 2.40928 1.91424C2.47066 1.88482 2.5381 1.8662 2.60774 1.85947C2.67739 1.85273 2.74787 1.858 2.81518 1.87498C2.88248 1.89196 2.94528 1.92031 3 1.95842L5.66667 3.81556C5.7292 3.85905 5.77968 3.91424 5.81438 3.97703C5.84907 4.03982 5.86708 4.1086 5.86708 4.17828C5.86708 4.24796 5.84907 4.31674 5.81438 4.37953C5.77968 4.44232 5.7292 4.49751 5.66667 4.541L3 6.39815C2.90541 6.46408 2.78784 6.5 2.66667 6.5ZM8 6.5H5.86667C5.72522 6.5 5.58956 6.45108 5.48954 6.36401C5.38952 6.27694 5.33333 6.15885 5.33333 6.03571C5.33333 5.91258 5.38952 5.79449 5.48954 5.70741C5.58956 5.62034 5.72522 5.57143 5.86667 5.57143H8C8.14145 5.57143 8.27711 5.62034 8.37712 5.70741C8.47714 5.79449 8.53333 5.91258 8.53333 6.03571C8.53333 6.15885 8.47714 6.27694 8.37712 6.36401C8.27711 6.45108 8.14145 6.5 8 6.5Z" fill="black"/>
</svg>
