<svg width="13" height="13" viewBox="0 0 13 13" fill="none" xmlns="http://www.w3.org/2000/svg">
<path d="M8.71707 8.9165C8.86483 8.36923 8.96258 7.7334 8.99984 7.12295C9.00066 7.107 8.99838 7.09104 8.99313 7.07606C8.98787 7.06109 8.97977 7.04741 8.96932 7.03589C8.95886 7.02436 8.94628 7.01523 8.93235 7.00905C8.91842 7.00288 8.90343 6.9998 8.88833 7.00001H7.11175C7.09721 6.99987 7.08278 7.00276 7.06929 7.00852C7.05581 7.01428 7.04352 7.02279 7.03315 7.03356C7.02277 7.04434 7.0145 7.05718 7.00881 7.07133C7.00313 7.08549 7.00013 7.10069 7 7.11607V8.57809C7.00031 8.60762 7.01114 8.63594 7.03033 8.6574C7.04951 8.67887 7.07564 8.69189 7.1035 8.69389C7.60416 8.73667 8.09883 8.83766 8.57857 8.99502C8.60678 9.00399 8.63721 9.00076 8.66317 8.98604C8.68914 8.97132 8.70852 8.94631 8.71707 8.9165Z" fill="black"/>
<path d="M7.94167 10.2468C7.66336 10.1265 7.3782 10.0441 7.08976 10.0007C7.07862 9.9989 7.06734 10.0005 7.05664 10.0055C7.04594 10.0104 7.03606 10.0186 7.02762 10.0295C7.01917 10.0405 7.01236 10.0539 7.0076 10.0689C7.00285 10.0839 7.00026 10.1003 7 10.1169V11.8827C7.00044 11.9038 7.00458 11.9243 7.01203 11.9423C7.01947 11.9603 7.02996 11.975 7.04244 11.9851C7.05493 11.9953 7.06898 12.0004 7.08322 12C7.09745 11.9996 7.11136 11.9937 7.12358 11.9829C7.41425 11.732 7.65374 11.3105 7.87019 10.7532C7.90566 10.6623 7.95959 10.5055 7.99213 10.4097C7.99718 10.3943 7.99987 10.3774 8 10.3603C8.00012 10.3432 7.99769 10.3262 7.99286 10.3106C7.98804 10.2951 7.98095 10.2813 7.9721 10.2702C7.96325 10.2592 7.95286 10.2512 7.94167 10.2468Z" fill="black"/>
<path d="M5.91209 10.0013C5.62226 10.0419 5.3356 10.122 5.05577 10.2405C5.00721 10.2611 4.9868 10.3599 5.00887 10.4247C5.04179 10.5213 5.08244 10.6447 5.1172 10.7369C5.35629 11.3608 5.61083 11.7542 5.87567 11.9828C5.88797 11.9937 5.90196 11.9996 5.91628 12C5.9306 12.0004 5.94474 11.9953 5.9573 11.9851C5.96986 11.975 5.98041 11.9602 5.9879 11.9422C5.99539 11.9242 5.99956 11.9036 6 11.8825V10.1119C5.99991 10.0958 5.99747 10.0798 5.99284 10.0652C5.98821 10.0505 5.9815 10.0375 5.97316 10.027C5.96483 10.0165 5.95506 10.0088 5.94452 10.0043C5.93399 9.9999 5.92292 9.99885 5.91209 10.0013V10.0013Z" fill="black"/>
<path d="M5.88801 7.00001H4.11164C4.09656 6.99981 4.08161 7.00288 4.06769 7.00903C4.05378 7.01518 4.04121 7.02429 4.03076 7.03578C4.02031 7.04728 4.0122 7.06091 4.00694 7.07585C4.00167 7.09079 3.99936 7.10671 4.00015 7.12263C4.03715 7.73206 4.13439 8.36897 4.28163 8.9155C4.2858 8.93046 4.29275 8.94439 4.30205 8.95649C4.31136 8.96859 4.32284 8.97862 4.33584 8.98599C4.34884 8.99336 4.36309 8.99794 4.37777 8.99945C4.39245 9.00096 4.40727 8.99937 4.42137 8.99478C4.90101 8.83748 5.39565 8.73679 5.89626 8.69456C5.92416 8.69263 5.95035 8.67964 5.96959 8.65818C5.98882 8.63672 5.99968 8.60837 6 8.57881V7.11629C5.9999 7.10087 5.99692 7.08563 5.99124 7.07143C5.98555 7.05723 5.97726 7.04435 5.96686 7.03355C5.95645 7.02275 5.94413 7.01422 5.9306 7.00846C5.91707 7.00271 5.90259 6.99984 5.88801 7.00001V7.00001Z" fill="black"/>
<path d="M7.08995 2.99929C7.3788 2.9593 7.66418 2.8764 7.94179 2.75187C7.95293 2.74742 7.96327 2.7394 7.97209 2.72839C7.9809 2.71738 7.98797 2.70364 7.99279 2.68814C7.99761 2.67265 8.00008 2.65578 8 2.63872C7.99992 2.62166 7.99731 2.60484 7.99235 2.58944C7.95955 2.4928 7.91412 2.35447 7.87932 2.26216C7.65418 1.66661 7.40046 1.25108 7.12384 1.01692C7.11158 1.0062 7.09765 1.00037 7.08341 1.00002C7.06917 0.999661 7.05511 1.00479 7.04262 1.01489C7.03012 1.025 7.01962 1.03973 7.01215 1.05765C7.00468 1.07557 7.00049 1.09605 7 1.11708V2.88289C7.00026 2.89949 7.00286 2.91584 7.00762 2.93088C7.01238 2.94593 7.01921 2.95935 7.02766 2.97029C7.03612 2.98124 7.04602 2.98947 7.05675 2.99446C7.06747 2.99945 7.07877 3.00109 7.08995 2.99929V2.99929Z" fill="black"/>
<path d="M7.11176 5.99998H8.88839C8.90336 6.00025 8.91822 5.99729 8.93206 5.99128C8.9459 5.98527 8.95843 5.97635 8.96888 5.96505C8.97932 5.95375 8.98746 5.94033 8.9928 5.92559C8.99813 5.91086 9.00055 5.89513 8.9999 5.87938C8.96289 5.2798 8.86814 4.6207 8.72088 4.08299C8.71657 4.06821 8.70953 4.05447 8.70017 4.04255C8.69081 4.03064 8.6793 4.02079 8.66632 4.01358C8.65333 4.00636 8.63912 4.00191 8.6245 4.00049C8.60988 3.99908 8.59513 4.00071 8.58112 4.00531C8.10608 4.15646 7.61129 4.27996 7.10376 4.3213C7.07602 4.32296 7.04991 4.33561 7.03066 4.35671C7.01141 4.37781 7.00046 4.4058 7 4.43506V5.88623C7.00053 5.91691 7.01259 5.94612 7.03354 5.96745C7.05449 5.98878 7.08262 6.00048 7.11176 5.99998Z" fill="black"/>
<path d="M5.87661 1.01643C5.59432 1.24854 5.34259 1.67811 5.11742 2.27234C5.08245 2.3647 5.04071 2.492 5.00757 2.58842C5.00265 2.60383 5.00006 2.62065 5 2.6377C4.99994 2.65475 5.0024 2.67161 5.00722 2.6871C5.01204 2.70259 5.01909 2.71633 5.02788 2.72736C5.03667 2.73839 5.04698 2.74643 5.0581 2.75092C5.33541 2.87781 5.62099 2.96106 5.91011 2.99929C5.92126 3.00109 5.93255 2.99945 5.94325 2.99448C5.95395 2.9895 5.96384 2.98129 5.97229 2.97037C5.98074 2.95945 5.98756 2.94605 5.99233 2.93103C5.9971 2.91601 5.99971 2.89969 6 2.8831V1.11664C5.99942 1.09571 5.9952 1.07536 5.98774 1.05755C5.98028 1.03974 5.96984 1.02509 5.95743 1.01501C5.94501 1.00493 5.93105 0.999759 5.91689 1.00001C5.90273 1.00026 5.88886 1.00591 5.87661 1.01643Z" fill="black"/>
<path d="M5.89624 4.3213C5.38871 4.28048 4.89342 4.15699 4.41888 4.00531C4.40487 4.00071 4.39012 3.99908 4.3755 4.00049C4.36088 4.00191 4.34667 4.00636 4.33368 4.01358C4.3207 4.02079 4.30919 4.03064 4.29983 4.04255C4.29047 4.05447 4.28343 4.06821 4.27912 4.08299C4.13186 4.6207 4.03711 5.2798 4.0001 5.87938C3.99945 5.89513 4.00187 5.91086 4.0072 5.92559C4.01254 5.94033 4.02068 5.95375 4.03112 5.96505C4.04157 5.97635 4.0541 5.98527 4.06794 5.99128C4.08178 5.99729 4.09664 6.00025 4.11161 5.99998H5.88824C5.90271 6.00023 5.91708 5.99746 5.93053 5.99185C5.94398 5.98623 5.95625 5.97788 5.96663 5.96726C5.97701 5.95665 5.98531 5.94398 5.99103 5.92998C5.99676 5.91599 5.9998 5.90094 6 5.8857V4.43506C5.99954 4.4058 5.98859 4.37781 5.96934 4.35671C5.95009 4.33561 5.92398 4.32296 5.89624 4.3213Z" fill="black"/>
<path d="M11.0802 1.9198C10.4798 1.31346 9.76549 0.831717 8.97835 0.502259C8.1912 0.172802 7.34671 0.00211983 6.4934 1.96211e-05C5.64008 -0.00208059 4.79477 0.164442 4.00601 0.490021C3.21724 0.8156 2.50059 1.29382 1.8972 1.8972C1.29382 2.50059 0.8156 3.21724 0.490021 4.00601C0.164442 4.79477 -0.00208059 5.64008 1.96211e-05 6.4934C0.00211983 7.34671 0.172802 8.1912 0.502259 8.97835C0.831717 9.76549 1.31346 10.4798 1.9198 11.0802C2.52021 11.6865 3.23451 12.1683 4.02166 12.4977C4.8088 12.8272 5.65329 12.9979 6.5066 13C7.35992 13.0021 8.20523 12.8356 8.99399 12.51C9.78276 12.1844 10.4994 11.7062 11.1028 11.1028C11.7062 10.4994 12.1844 9.78276 12.51 8.99399C12.8356 8.20523 13.0021 7.35992 13 6.5066C12.9979 5.65329 12.8272 4.8088 12.4977 4.02166C12.1683 3.23451 11.6865 2.52021 11.0802 1.9198V1.9198ZM4.20397 11.5562C4.07368 11.3732 3.95322 11.1834 3.84309 10.9877C3.78525 10.881 3.70313 10.7199 3.64847 10.608C3.63595 10.5814 3.61801 10.5578 3.59582 10.5386C3.57363 10.5194 3.54767 10.505 3.5196 10.4964C3.49154 10.4878 3.46198 10.4851 3.43284 10.4886C3.40369 10.4921 3.37559 10.5016 3.35034 10.5166C3.22599 10.5863 3.06117 10.682 2.94174 10.7604C2.69129 10.57 2.4627 10.3525 2.26016 10.1118C2.54026 9.91406 2.83413 9.73664 3.13953 9.58084C3.19332 9.55192 3.21963 9.51896 3.20257 9.45997C2.97882 8.68554 2.84216 7.88857 2.79513 7.08384C2.79373 7.05166 2.78006 7.02124 2.75694 6.99881C2.73382 6.97639 2.70299 6.96367 2.67078 6.96325H1.03002C1.01607 6.96341 1.00254 6.95852 0.991911 6.94949C0.981283 6.94046 0.974278 6.92789 0.972187 6.91409C0.954014 6.77684 0.945896 6.63844 0.947897 6.5C0.945919 6.36183 0.954232 6.22371 0.972765 6.08677C0.974857 6.07298 0.981862 6.06041 0.99249 6.05138C1.00312 6.04234 1.01665 6.03746 1.0306 6.03761H2.67136C2.73758 6.03761 2.79195 5.99944 2.79542 5.93264C2.84182 5.13126 2.97761 4.33758 3.20026 3.56635C3.20855 3.5382 3.20676 3.50804 3.1952 3.48106C3.18364 3.45409 3.16303 3.43199 3.13693 3.41858C2.83809 3.26546 2.54982 3.09253 2.27404 2.90096C2.47551 2.66032 2.69958 2.43954 2.94318 2.24165C3.06117 2.31915 3.21501 2.40677 3.33819 2.47617C3.36534 2.4916 3.39537 2.5013 3.42641 2.50465C3.45746 2.50801 3.48886 2.50496 3.51868 2.49569C3.5485 2.48642 3.5761 2.47113 3.59977 2.45076C3.62343 2.43039 3.64267 2.40538 3.65628 2.37727C3.71065 2.26536 3.77195 2.14073 3.83152 2.03374C3.94213 1.83555 4.06317 1.64336 4.19414 1.458C4.91517 1.11832 5.70298 0.944036 6.5 0.947897C7.33686 0.947897 8.11647 1.15032 8.8287 1.48171C8.95447 1.65828 9.07031 1.8417 9.17571 2.03114C9.2506 2.16589 9.33013 2.33101 9.39722 2.47415C9.40442 2.48939 9.41465 2.503 9.4273 2.51416C9.43994 2.52531 9.45472 2.53377 9.47074 2.53902C9.48676 2.54427 9.50369 2.5462 9.52048 2.54469C9.53727 2.54318 9.55358 2.53827 9.5684 2.53025C9.72398 2.4461 9.89257 2.34922 10.0409 2.25177C10.2852 2.4516 10.5099 2.67431 10.7118 2.91687C10.4436 3.10289 10.1628 3.27014 9.87146 3.41743C9.84531 3.43085 9.82468 3.45301 9.81317 3.48006C9.80165 3.5071 9.79997 3.53733 9.80842 3.56548C10.0347 4.33147 10.1691 5.12163 10.2089 5.91934C10.2105 5.95134 10.2242 5.98152 10.2474 6.00368C10.2705 6.02584 10.3012 6.0383 10.3333 6.03848L11.9706 6.03646C11.9845 6.0363 11.998 6.04119 12.0087 6.05022C12.0193 6.05926 12.0263 6.07183 12.0284 6.08562C12.0621 6.36046 12.0621 6.63839 12.0284 6.91323C12.0264 6.92712 12.0195 6.93983 12.0088 6.94898C11.9982 6.95813 11.9846 6.9631 11.9706 6.96296H10.3318C10.2996 6.96331 10.2687 6.97601 10.2456 6.99845C10.2224 7.02088 10.2088 7.05135 10.2075 7.08355C10.1624 7.87977 10.0279 8.6684 9.80639 9.43452C9.79802 9.463 9.79975 9.4935 9.81129 9.52085C9.82283 9.54821 9.84347 9.57073 9.86972 9.5846C10.0143 9.65949 10.1754 9.74306 10.3142 9.82808C10.453 9.9131 10.5903 10.0039 10.7228 10.0982C10.5224 10.3396 10.2997 10.5616 10.0577 10.7612C9.98713 10.7147 9.90327 10.6618 9.83097 10.6184C9.78124 10.5895 9.68957 10.5383 9.63867 10.5097C9.52821 10.4478 9.41081 10.494 9.35557 10.608C9.30034 10.7219 9.2159 10.8853 9.15691 10.9911C9.04821 11.1857 8.92899 11.3743 8.79979 11.5559C8.08784 11.8893 7.33686 12.0521 6.5 12.0521C5.66314 12.0521 4.9162 11.8893 4.20397 11.5562Z" fill="black"/>
</svg>
