<svg width="14" height="14" viewBox="0 0 14 14" fill="none" xmlns="http://www.w3.org/2000/svg">
<path d="M7 1C3.68644 1 1 3.68644 1 7C1 10.3136 3.68644 13 7 13C10.3136 13 13 10.3136 13 7C13 3.68644 10.3136 1 7 1Z" stroke="black" stroke-width="0.5" stroke-miterlimit="10"/>
<path d="M7 1C5.30793 1 3.71698 3.68644 3.71698 7C3.71698 10.3136 5.30793 13 7 13C8.69206 13 10.283 10.3136 10.283 7C10.283 3.68644 8.69206 1 7 1Z" stroke="black" stroke-width="0.5" stroke-miterlimit="10"/>
<path d="M3.03772 3.03772C4.13036 3.81782 5.50588 4.283 6.99998 4.283C8.49408 4.283 9.8696 3.81782 10.9622 3.03772" stroke="black" stroke-width="0.5" stroke-linecap="round" stroke-linejoin="round"/>
<path d="M10.9622 10.9623C9.8696 10.1822 8.49408 9.71704 6.99998 9.71704C5.50588 9.71704 4.13036 10.1822 3.03772 10.9623" stroke="black" stroke-width="0.5" stroke-linecap="round" stroke-linejoin="round"/>
<path d="M7 1V13" stroke="black" stroke-width="0.5" stroke-miterlimit="10"/>
<path d="M13 7H1" stroke="black" stroke-width="0.5" stroke-miterlimit="10"/>
</svg>
